PathFileType	4	(X/Y/Z)
DataRate	CameraRate	NumFrames	NumMarkers	Units	OrigDataRate	OrigDataStartFrame	OrigNumFrames	
	120.0	120.0	12	39	mm	120.0	1	225
Frame#	Time	midhip	hip_r	hip_l	knee_r	knee_l	ankle_r	ankle_l	midasis	asis_r	asis_l	psis_r	psis_l	epicondLat_r	epicondLat_l	epicondMed_r	epicondMed_l	malleolusLat_r	malleolusLat_l	malleolusMedv_r	malleolusMedv_l	heel_r	heel_l	sternalnotch	xyphoidprocess	neck	subclavicle_r	subclavicle_l	toe_r	toe_l	thighwand_r	thighwand_l	upperleg1_r	upperleg1_l	upperleg2_r	upperleg2_l	shankwand_r	shankwand_l	lowerleg1_r	lowerleg1_l
	X1	Y1	Z1	X2	Y2	Z2	X3	Y3	Z3	X4	Y4	Z4	X5	Y5	Z5	X6	Y6	Z6	X7	Y7	Z7	X8	Y8	Z8	X9	Y9	Z9	X10	Y10	Z10	X11	Y11	Z11	X12	Y12	Z12	X13	Y13	Z13	X14	Y14	Z14	X15	Y15	Z15	X16	Y16	Z16	X17	Y17	Z17	X18	Y18	Z18	X19	Y19	Z19	X20	Y20	Z20	X21	Y21	Z21	X22	Y22	Z22	X23	Y23	Z23	X24	Y24	Z24	X25	Y25	Z25	X26	Y26	Z26	X27	Y27	Z27	X28	Y28	Z28	X29	Y29	Z29	X30	Y30	Z30	X31	Y31	Z31	X32	Y32	Z32	X33	Y33	Z33	X34	Y34	Z34	X35	Y35	Z35	X36	Y36	Z36	X37	Y37	Z37	X38	Y38	Z38	X39	Y39	Z39

	1	0.00833	716.399	912.779	-273.684	714.618	891.748	-226.349	710.648	893.921	-332.823	702.708	479.385	-201.223	706.774	481.948	-363.468	624.968	70.008	-179.410	655.850	68.711	-357.924	783.433	995.608	-280.128	787.394	993.440	-173.904	779.473	997.777	-386.351	580.851	1005.401	-228.686	576.546	1007.063	-316.858	715.515	482.550	-143.204	711.409	486.305	-422.627	689.141	500.718	-260.011	695.330	491.093	-315.590	623.301	72.344	-141.519	651.791	68.684	-397.214	621.948	70.285	-209.906	663.674	75.363	-328.696	580.410	45.836	-190.347	609.444	45.565	-356.030	701.355	1391.961	-283.313	740.389	1190.823	-289.241	613.418	1462.499	-287.996	716.634	1391.644	-202.552	711.015	1389.922	-357.024	745.483	42.770	-183.308	783.476	42.161	-373.080	756.514	601.606	-71.345	853.591	624.876	-365.180	767.153	658.920	-144.786	777.958	684.384	-401.015	762.822	577.050	-165.343	767.813	598.287	-402.578	653.766	144.137	-78.268	770.014	171.689	-357.454	644.823	202.381	-140.975	704.796	225.298	-365.891
	2	0.01667	716.373	912.879	-272.915	714.585	891.725	-226.363	710.643	893.890	-332.838	702.725	479.349	-201.232	706.874	481.933	-363.453	625.056	69.992	-179.389	655.899	68.701	-357.923	783.441	995.563	-280.133	787.373	993.403	-173.919	779.509	997.723	-386.348	580.656	1005.437	-227.995	576.558	1007.040	-316.915	715.528	482.516	-143.212	711.512	486.287	-422.612	689.213	500.637	-260.033	695.491	490.910	-315.567	623.387	72.331	-141.498	651.841	68.676	-397.214	621.994	70.217	-209.901	663.857	75.342	-328.694	580.408	45.868	-190.328	609.441	45.556	-356.015	701.199	1391.880	-283.310	740.272	1190.753	-289.386	613.158	1462.462	-288.020	716.503	1391.510	-202.557	710.838	1389.892	-357.023	745.501	42.735	-183.298	783.505	42.163	-373.073	756.536	601.607	-71.348	853.661	624.827	-365.130	767.174	658.855	-144.799	777.969	684.252	-400.977	762.862	576.987	-165.353	767.899	598.183	-402.543	653.790	144.101	-78.263	770.059	171.620	-357.429	644.955	202.256	-140.976	704.800	225.142	-365.843
	3	0.02500	716.404	912.892	-272.707	714.572	891.707	-226.376	710.658	893.865	-332.853	702.748	479.327	-201.241	706.969	481.923	-363.442	625.103	69.984	-179.373	655.926	68.695	-357.924	783.440	995.543	-280.136	787.344	993.391	-173.926	779.536	997.695	-386.346	580.654	1005.411	-227.639	576.567	1007.012	-316.967	715.544	482.497	-143.220	711.612	486.274	-422.600	689.261	500.597	-260.037	695.758	490.693	-315.574	623.430	72.326	-141.482	651.872	68.671	-397.216	622.019	70.184	-209.910	663.950	75.324	-328.690	580.406	45.887	-190.312	609.443	45.530	-355.997	701.199	1391.858	-283.236	740.515	1190.784	-289.474	612.909	1462.426	-288.030	716.673	1391.476	-202.526	710.685	1389.912	-356.959	745.508	42.712	-183.291	783.520	42.171	-373.070	756.547	601.610	-71.348	853.731	624.803	-365.088	767.195	658.812	-144.790	777.975	684.154	-400.915	762.890	576.955	-165.342	768.028	598.118	-402.510	653.791	144.080	-78.259	770.092	171.571	-357.412	645.044	202.170	-140.982	704.802	225.025	-365.799
	4	0.03333	716.314	912.518	-273.221	714.580	891.694	-226.390	710.699	893.847	-332.867	702.778	479.323	-201.248	707.054	481.919	-363.433	625.100	69.979	-179.366	655.923	68.692	-357.925	783.427	995.553	-280.131	787.299	993.406	-173.919	779.556	997.700	-386.342	580.882	1005.306	-227.785	576.574	1006.974	-317.021	715.560	482.494	-143.223	711.705	486.268	-422.591	689.262	500.597	-260.028	695.886	490.661	-315.612	623.418	72.324	-141.476	651.874	68.669	-397.217	622.022	70.183	-209.908	663.951	75.322	-328.691	580.408	45.883	-190.303	609.446	45.497	-355.983	701.422	1391.890	-283.138	741.226	1190.919	-289.603	612.685	1462.375	-288.032	717.326	1391.542	-202.516	710.521	1389.974	-356.907	745.504	42.709	-183.286	783.517	42.177	-373.070	756.537	601.613	-71.342	853.801	624.810	-365.053	767.205	658.810	-144.786	778.084	684.141	-400.896	762.890	576.955	-165.329	768.167	598.129	-402.502	653.770	144.076	-78.255	770.115	171.547	-357.402	645.047	202.156	-140.975	704.866	225.028	-365.807
	5	0.04167	716.068	911.849	-273.955	714.601	891.686	-226.402	710.757	893.837	-332.881	702.815	479.328	-201.251	707.133	481.920	-363.426	625.056	69.971	-179.370	655.891	68.690	-357.924	783.402	995.589	-280.118	787.237	993.444	-173.898	779.568	997.734	-386.338	581.172	1005.157	-228.079	576.578	1006.923	-317.079	715.580	482.503	-143.223	711.794	486.266	-422.584	689.276	500.651	-260.048	695.926	490.823	-315.652	623.363	72.318	-141.480	651.849	68.668	-397.216	621.994	70.224	-209.910	663.842	75.348	-328.696	580.412	45.856	-190.305	609.448	45.462	-355.972	701.211	1392.029	-283.116	741.285	1191.109	-289.486	612.509	1462.304	-288.035	717.094	1391.737	-202.463	710.331	1390.094	-356.908	745.499	42.723	-183.270	783.499	42.178	-373.072	756.506	601.612	-71.329	853.871	624.844	-365.020	767.186	658.882	-144.795	778.244	684.259	-400.954	762.881	577.009	-165.342	768.311	598.220	-402.526	653.730	144.086	-78.250	770.133	171.542	-357.398	644.885	202.239	-140.952	704.977	225.165	-365.873
	6	0.05000	716.026	911.490	-274.664	714.630	891.682	-226.416	710.827	893.833	-332.896	702.864	479.340	-201.257	707.210	481.922	-363.419	624.988	69.958	-179.382	655.839	68.687	-357.921	783.371	995.640	-280.101	787.165	993.495	-173.867	779.577	997.786	-386.334	581.433	1004.986	-228.364	576.577	1006.859	-317.143	715.607	482.517	-143.224	711.882	486.265	-422.576	689.278	500.753	-260.058	696.017	490.985	-315.709	623.282	72.307	-141.493	651.805	68.666	-397.214	621.939	70.282	-209.924	663.666	75.364	-328.695	580.418	45.819	-190.316	609.447	45.424	-355.964	701.160	1392.219	-283.135	741.713	1191.392	-289.419	612.361	1462.209	-288.032	717.200	1392.031	-202.528	710.142	1390.246	-356.928	745.506	42.743	-183.229	783.470	42.173	-373.073	756.460	601.606	-71.315	853.943	624.894	-364.990	767.161	658.991	-144.788	778.384	684.432	-400.993	762.863	577.109	-165.338	768.461	598.342	-402.549	653.677	144.105	-78.246	770.153	171.547	-357.397	644.634	202.365	-140.949	705.062	225.306	-365.900
	7	0.05833	716.176	911.458	-275.256	714.661	891.673	-226.429	710.900	893.825	-332.911	702.917	479.350	-201.266	707.294	481.919	-363.404	624.914	69.942	-179.397	655.788	68.679	-357.917	783.337	995.691	-280.081	787.090	993.544	-173.833	779.585	997.839	-386.329	581.625	1004.810	-228.613	576.573	1006.787	-317.211	715.639	482.530	-143.229	711.975	486.258	-422.561	689.256	500.814	-259.997	696.202	491.024	-315.748	623.194	72.294	-141.509	651.759	68.659	-397.211	621.879	70.313	-209.917	663.521	75.350	-328.676	580.424	45.783	-190.335	609.446	45.386	-355.961	699.822	1392.451	-283.220	739.911	1191.504	-288.584	612.204	1462.099	-288.011	714.566	1392.330	-202.318	709.981	1390.351	-356.904	745.530	42.762	-183.164	783.439	42.162	-373.073	756.414	601.595	-71.303	854.023	624.945	-364.959	767.146	659.069	-144.755	778.505	684.548	-400.945	762.836	577.180	-165.284	768.621	598.433	-402.532	653.626	144.127	-78.245	770.181	171.551	-357.394	644.452	202.443	-140.947	705.147	225.377	-365.865
	8	0.06667	716.245	911.389	-275.631	714.682	891.658	-226.439	710.964	893.811	-332.923	702.971	479.353	-201.275	707.393	481.910	-363.379	624.851	69.928	-179.407	655.755	68.667	-357.911	783.304	995.728	-280.059	787.015	993.579	-173.797	779.594	997.877	-386.320	581.715	1004.653	-228.793	576.565	1006.712	-317.277	715.675	482.535	-143.234	712.079	486.243	-422.536	689.263	500.822	-259.944	696.484	490.952	-315.750	623.121	72.282	-141.519	651.729	68.650	-397.205	621.840	70.285	-209.868	663.432	75.337	-328.651	580.429	45.755	-190.357	609.444	45.358	-355.960	699.366	1392.542	-283.249	739.520	1191.600	-288.292	612.007	1462.004	-287.994	713.757	1392.484	-202.317	709.847	1390.391	-356.853	745.562	42.775	-183.092	783.416	42.149	-373.068	756.379	601.584	-71.291	854.119	624.984	-364.922	767.146	659.091	-144.721	778.597	684.593	-400.869	762.827	577.206	-165.228	768.800	598.465	-402.489	653.590	144.148	-78.244	770.221	171.544	-357.381	644.389	202.473	-140.928	705.235	225.407	-365.836
	9	0.07500	716.195	911.236	-275.779	714.690	891.636	-226.445	711.014	893.792	-332.929	703.036	479.348	-201.285	707.509	481.897	-363.346	624.815	69.925	-179.409	655.747	68.660	-357.903	783.276	995.748	-280.032	786.944	993.597	-173.760	779.608	997.899	-386.305	581.705	1004.529	-228.901	576.554	1006.641	-317.344	715.724	482.531	-143.241	712.198	486.226	-422.503	689.354	500.821	-259.980	696.730	490.876	-315.748	623.076	72.282	-141.522	651.724	68.647	-397.198	621.844	70.218	-209.802	663.408	75.334	-328.639	580.432	45.745	-190.376	609.438	45.346	-355.960	699.875	1392.493	-283.181	740.660	1191.689	-288.626	611.790	1461.948	-288.016	714.985	1392.467	-202.405	709.709	1390.393	-356.851	745.592	42.780	-183.028	783.405	42.137	-373.056	756.365	601.578	-71.284	854.242	625.002	-364.885	767.169	659.074	-144.709	778.720	684.585	-400.833	762.865	577.212	-165.217	768.988	598.449	-402.461	653.579	144.166	-78.245	770.272	171.520	-357.357	644.412	202.498	-140.933	705.304	225.398	-365.815
	10	0.08333	716.049	910.990	-275.825	714.691	891.615	-226.446	711.056	893.770	-332.932	703.111	479.341	-201.301	707.638	481.887	-363.311	624.809	69.943	-179.402	655.762	68.669	-357.898	783.252	995.757	-280.004	786.880	993.606	-173.722	779.624	997.909	-386.286	581.651	1004.431	-228.982	576.544	1006.579	-317.410	715.785	482.526	-143.254	712.331	486.211	-422.468	689.519	500.785	-260.061	696.876	490.867	-315.708	623.061	72.304	-141.516	651.742	68.659	-397.193	621.872	70.175	-209.758	663.453	75.320	-328.633	580.435	45.762	-190.390	609.430	45.354	-355.960	701.483	1392.317	-282.923	743.480	1191.801	-289.612	611.594	1461.916	-288.046	718.498	1392.293	-202.467	709.587	1390.375	-356.865	745.624	42.779	-182.972	783.406	42.137	-373.043	756.377	601.584	-71.284	854.412	624.997	-364.866	767.212	659.034	-144.713	778.913	684.545	-400.818	762.946	577.189	-165.234	769.161	598.410	-402.434	653.590	144.185	-78.250	770.329	171.486	-357.327	644.532	202.508	-140.957	705.370	225.336	-365.794
	11	0.09167	715.880	910.727	-275.855	714.690	891.600	-226.442	711.093	893.754	-332.929	703.190	479.342	-201.320	707.774	481.887	-363.278	624.821	69.989	-179.390	655.789	68.698	-357.898	783.231	995.768	-279.976	786.821	993.619	-173.684	779.640	997.918	-386.268	581.595	1004.351	-229.062	576.533	1006.528	-317.476	715.852	482.526	-143.271	712.471	486.208	-422.435	689.665	500.723	-260.104	697.025	490.883	-315.595	623.065	72.354	-141.504	651.772	68.692	-397.193	621.906	70.214	-209.770	663.518	75.325	-328.626	580.437	45.805	-190.397	609.423	45.377	-355.963	700.975	1392.239	-282.976	742.678	1191.660	-289.622	611.393	1461.902	-288.065	717.525	1392.107	-202.447	709.501	1390.355	-356.849	745.654	42.777	-182.926	783.415	42.156	-373.033	756.411	601.608	-71.290	854.629	624.983	-364.871	767.233	658.995	-144.713	779.086	684.516	-400.792	763.019	577.161	-165.243	769.293	598.379	-402.390	653.611	144.211	-78.261	770.381	171.453	-357.301	644.720	202.510	-140.975	705.414	225.265	-365.767
	12	0.10000	715.812	910.624	-275.874	714.684	891.596	-226.430	711.127	893.746	-332.919	703.270	479.350	-201.338	707.912	481.898	-363.250	624.839	70.056	-179.376	655.817	68.746	-357.902	783.208	995.787	-279.941	786.759	993.641	-173.636	779.656	997.934	-386.246	581.538	1004.287	-229.133	576.522	1006.485	-317.540	715.922	482.533	-143.286	712.613	486.218	-422.406	689.767	500.669	-260.102	697.207	490.914	-315.445	623.078	72.426	-141.491	651.802	68.744	-397.198	621.941	70.285	-209.814	663.557	75.383	-328.630	580.440	45.864	-190.399	609.418	45.415	-355.966	700.189	1392.226	-283.016	741.467	1191.550	-289.384	611.169	1461.905	-288.101	715.975	1392.009	-202.314	709.410	1390.364	-356.827	745.673	42.782	-182.899	783.430	42.195	-373.023	756.459	601.646	-71.300	854.876	624.971	-364.892	767.225	658.999	-144.715	779.209	684.515	-400.772	763.072	577.160	-165.246	769.394	598.379	-402.345	653.631	144.243	-78.276	770.423	171.426	-357.279	644.844	202.535	-141.003	705.428	225.234	-365.722
